<svg xmlns="http://www.w3.org/2000/svg" xmlns:xlink="http://www.w3.org/1999/xlink" fill="none" version="1.1" width="32" height="32" viewBox="0 0 32 32"><defs><clipPath id="master_svg0_221_3443"><rect x="0" y="0" width="32" height="32" rx="0"/></clipPath></defs><g clip-path="url(#master_svg0_221_3443)"><g><path d="M4.97127618359375,26.1040631640625L6.43551318359375,27.2642761640625Q6.94223318359375,27.6657911640625,7.58862318359375,27.6790481640625Q8.23500318359375,27.6923051640625,8.757763183593749,27.3119051640625Q9.83665318359375,26.5268331640625,11.16972318359375,26.4698481640625Q12.50279318359375,26.4128631640625,13.64473318359375,27.1030016640625L14.16583318359375,27.4179281640625Q14.80486318359375,27.8040991640625,15.55126318359375,27.7891831640625Q16.29776318359375,27.7742671640625,16.92076318359375,27.3628771640625Q18.139263183593748,26.5583211640625,19.59896318359375,26.5237291640625Q21.05876318359375,26.4891361640625,22.31396318359375,27.2350691640625L22.44116318359375,27.3106301640625Q23.16036318359375,27.7380641640625,23.99636318359375,27.7032291640625Q24.83236318359375,27.6683941640625,25.51356318359375,27.1826016640625L27.07946318359375,26.0658881640625Q27.23836318359375,25.9525881640625,27.42426318359375,25.8930981640625Q27.61006318359375,25.8336181640625,27.80526318359375,25.8336181640625Q27.86666318359375,25.8336181640625,27.92776318359375,25.8396381640625Q27.98886318359375,25.8456581640625,28.04906318359375,25.8576381640625Q28.10936318359375,25.8696181640625,28.16806318359375,25.8874381640625Q28.22686318359375,25.905268164062498,28.28356318359375,25.9287681640625Q28.34036318359375,25.9522681640625,28.39446318359375,25.9812181640625Q28.44866318359375,26.0101681640625,28.49966318359375,26.0442781640625Q28.55076318359375,26.0783981640625,28.59826318359375,26.1173551640625Q28.64566318359375,26.1563121640625,28.68916318359375,26.1997351640625Q28.73256318359375,26.2431571640625,28.77146318359375,26.2906261640625Q28.81046318359375,26.3380961640625,28.84456318359375,26.3891551640625Q28.87866318359375,26.4402151640625,28.90766318359375,26.4943721640625Q28.93656318359375,26.548530164062498,28.96006318359375,26.6052641640625Q28.98356318359375,26.6619981640625,29.00146318359375,26.7207621640625Q29.01926318359375,26.7795271640625,29.03126318359375,26.8397551640625Q29.04316318359375,26.8999841640625,29.04926318359375,26.9610971640625Q29.05526318359375,27.0222095640625,29.05526318359375,27.0836181640625Q29.05526318359375,27.2329661640625,29.02006318359375,27.378110164062498Q28.98486318359375,27.5232541640625,28.91646318359375,27.6560221640625Q28.84806318359375,27.7887911640625,28.75036318359375,27.9017111640625Q28.65256318359375,28.0146301640625,28.53106318359375,28.1013481640625L26.96506318359375,29.218048164062502Q25.67886318359375,30.1352881640625,24.10046318359375,30.201058164062502Q22.52206318359375,30.2668381640625,21.16396318359375,29.459788164062502L21.03686318359375,29.3842281640625Q20.39946318359375,29.0054581640625,19.65826318359375,29.0230281640625Q18.91706318359375,29.0405881640625,18.29826318359375,29.4491281640625Q17.07126318359375,30.2593081640625,15.60126318359375,30.2886881640625Q14.13115318359375,30.3180581640625,12.87275318359375,29.5575381640625L12.35165318359375,29.2426181640625Q11.855583183593751,28.942808164062498,11.27649318359375,28.9675681640625Q10.69739318359375,28.9923181640625,10.22872318359375,29.3333581640625Q9.02532318359375,30.2090381640625,7.5373531835937495,30.1785181640625Q6.04938318359375,30.1480081640625,4.88290618359375,29.2237181640625L3.41867318359375,28.0635081640625L3.4184611835937497,28.0633401640625Q3.30768518359375,27.975565164062502,3.21930518359375,27.8652711640625Q3.13092318359375,27.7549771640625,3.0694031835937503,27.6277331640625Q3.00788318359375,27.5004901640625,2.97632318359375,27.3627221640625Q2.94476318359375,27.2249541640625,2.94476318359375,27.0836181640625Q2.94476318359375,27.0222095640625,2.95078318359375,26.9610971640625Q2.95680318359375,26.8999841640625,2.96878318359375,26.8397551640625Q2.98076318359375,26.7795271640625,2.99858318359375,26.7207621640625Q3.01641318359375,26.6619981640625,3.0399131835937503,26.6052641640625Q3.0634131835937497,26.548530164062498,3.0923631835937497,26.4943721640625Q3.1213131835937498,26.4402151640625,3.15542318359375,26.3891551640625Q3.18954318359375,26.3380961640625,3.22850018359375,26.2906261640625Q3.2674571835937503,26.2431571640625,3.31088018359375,26.1997351640625Q3.35430218359375,26.1563121640625,3.40177118359375,26.1173551640625Q3.4492411835937498,26.0783981640625,3.50030018359375,26.0442781640625Q3.55136018359375,26.0101681640625,3.60551718359375,25.9812181640625Q3.65967518359375,25.9522681640625,3.71640918359375,25.9287681640625Q3.77314318359375,25.905268164062498,3.83190718359375,25.8874381640625Q3.89067218359375,25.8696181640625,3.95090018359375,25.8576381640625Q4.01112918359375,25.8456581640625,4.07224218359375,25.8396381640625Q4.13335458359375,25.8336181640625,4.19476318359375,25.8336181640625Q4.40614118359375,25.8336181640625,4.60576618359375,25.9031181640625Q4.80539118359375,25.9726181640625,4.97106518359375,26.1038961640625L4.97127618359375,26.1040631640625Z" fill-rule="evenodd" fill="#000000" fill-opacity="1"/></g><g><path d="M6.03675568359375,19.833543212890625Q5.93165568359375,19.838523212890625,5.82459568359375,19.836433212890626Q4.93249568359375,19.819033212890623,4.19534568359375,19.316293212890624L2.43834568359375,18.118000212890625L2.43813568359375,18.117852212890625Q2.28243568359375,18.011667212890625,2.1023656835937503,17.956105312890625Q1.92228568359375,17.900543212890625,1.73382568359375,17.900543212890625Q1.67241568359375,17.900543212890625,1.61130568359375,17.906562302890624Q1.55019568359375,17.912581412890624,1.48996568359375,17.924561612890624Q1.42973368359375,17.936541812890624,1.3709696835937502,17.954367812890624Q1.3122056835937501,17.972193712890626,1.25547168359375,17.995693812890625Q1.19873768359375,18.019194212890625,1.1445796835937498,18.048141212890624Q1.09042268359375,18.077089212890623,1.03936268359375,18.111206212890625Q0.98830368359375,18.145323212890624,0.9408336835937501,18.184280212890624Q0.89336468359375,18.223237212890623,0.84994168359375,18.266659212890627Q0.80651968359375,18.310082212890624,0.76756268359375,18.357551212890623Q0.72860568359375,18.405021212890624,0.69448868359375,18.456080212890626Q0.66037168359375,18.507140212890626,0.63142368359375,18.561297212890626Q0.6024766835937501,18.615455212890623,0.57897628359375,18.672189212890625Q0.5554761835937501,18.728923212890624,0.53765028359375,18.787687212890624Q0.51982428359375,18.846451212890624,0.50784408359375,18.906683212890623Q0.49586388359375,18.966913212890624,0.48984477359375,19.028023212890623Q0.48382568359375,19.089133212890626,0.48382568359375,19.150543212890625Q0.48382568359375,19.303213212890626,0.52056848359375,19.451383212890626Q0.55731128359375,19.599563212890626,0.62863668359375,19.734543212890625Q0.69996268359375,19.869523212890623,0.80167768359375,19.983373212890626Q0.90339268359375,20.097213212890626,1.0295176835937498,20.183233212890624L1.02973468359375,20.183383212890625L2.78672568359375,21.381673212890625Q4.13915568359375,22.304043212890626,5.77584568359375,22.335963212890626Q6.47679568359375,22.349633212890623,7.13200568359375,22.198073212890627C6.67377568359375,21.465763212890625,6.30373568359375,20.672633212890624,6.03675568359375,19.833543212890625ZM25.96242568359375,19.835973212890625C25.68042568359375,20.721473212890626,25.28362568359375,21.555773212890625,24.78962568359375,22.321373212890624Q25.27842568359375,22.373033212890626,25.78292568359375,22.353423212890625Q27.54942568359375,22.284753212890624,29.05612568359375,21.359943212890624L30.92002568359375,20.215863212890625Q31.05662568359375,20.132013212890627,31.16772568359375,20.016413212890626Q31.27872568359375,19.900803212890626,31.35702568359375,19.760923212890624Q31.43522568359375,19.621043212890626,31.47572568359375,19.465933212890626Q31.51612568359375,19.310833212890625,31.51612568359375,19.150543212890625Q31.51612568359375,19.089133212890626,31.51012568359375,19.028023212890623Q31.50412568359375,18.966913212890624,31.49212568359375,18.906683212890623Q31.48012568359375,18.846451212890624,31.46232568359375,18.787687212890624Q31.44452568359375,18.728923212890624,31.42102568359375,18.672189212890625Q31.39752568359375,18.615455212890623,31.36852568359375,18.561297212890626Q31.33962568359375,18.507140212890626,31.30552568359375,18.456080212890626Q31.27142568359375,18.405021212890624,31.23242568359375,18.357551212890623Q31.19342568359375,18.310082212890624,31.15002568359375,18.266659212890627Q31.10662568359375,18.223237212890623,31.05912568359375,18.184280212890624Q31.01172568359375,18.145323212890624,30.96062568359375,18.111206212890625Q30.90952568359375,18.077089212890623,30.85542568359375,18.048141212890624Q30.80122568359375,18.019194212890625,30.74452568359375,17.995693812890625Q30.68782568359375,17.972193712890626,30.62902568359375,17.954367812890624Q30.57022568359375,17.936541812890624,30.51002568359375,17.924561612890624Q30.44982568359375,17.912581412890624,30.38872568359375,17.906562302890624Q30.32752568359375,17.900543212890625,30.26612568359375,17.900543212890625Q29.91312568359375,17.900543212890625,29.61222568359375,18.085219212890625L27.74832568359375,19.229293212890624Q26.91802568359375,19.738963212890624,25.96242568359375,19.835973212890625Z" fill-rule="evenodd" fill="#000000" fill-opacity="1"/></g><g><path d="M23.230066943359375,16.390316455078125C23.230066943359375,20.383316455078123,19.993066943359374,23.620416455078125,15.999966943359375,23.620416455078125C12.006896943359376,23.620416455078125,8.769866943359375,20.383316455078123,8.769866943359375,16.390316455078125C8.769866943359375,12.397216455078125,14.635756943359375,2.788116455078125,15.999776943359375,2.788116455078125C17.363796943359375,2.788116455078125,23.230066943359375,12.397216455078125,23.230066943359375,16.390316455078125Z" fill="#000000" fill-opacity="1"/></g></g></svg>