<svg xmlns="http://www.w3.org/2000/svg" xmlns:xlink="http://www.w3.org/1999/xlink" fill="none" version="1.1" width="32" height="32" viewBox="0 0 32 32"><defs><clipPath id="master_svg0_215_3597"><rect x="0" y="0" width="32" height="32" rx="0"/></clipPath></defs><g clip-path="url(#master_svg0_215_3597)"><g><path d="M2.926546875,10.476116874999999Q1.810546875,13.114626875,1.810546875,15.999946875Q1.810546875,18.885346875,2.926546875,21.523846875Q4.003752375,24.070646875,5.966526875,26.033446875Q7.929306875,27.996146875,10.476106875,29.073346875Q13.114626875,30.189346875,15.999946875,30.189346875Q18.885246875,30.189346875,21.523846875,29.073346875Q24.070646875,27.996146875,26.033446875,26.033446875Q27.996146875,24.070646875,29.073346875,21.523846875Q30.189346875,18.885346875,30.189346875,15.999946875Q30.189346875,13.114626875,29.073346875,10.476106875Q27.996146875,7.929306875,26.033446875,5.966526875Q24.070646875,4.003753375,21.523846875,2.926546875Q18.885346875,1.810546875,15.999946875,1.810546875Q13.114626875,1.810546875,10.476106875,2.926546875Q7.929306875,4.003751475,5.966526875,5.966526875Q4.003752475,7.929306875,2.926546875,10.476116874999999ZM7.071066875,19.770846875Q6.310546875,17.972746875,6.310546875,15.999946875Q6.310546875,14.027166875,7.071066875,12.229096875Q7.806366875,10.490656874999999,9.148506874999999,9.148506874999999Q10.490656874999999,7.8063568750000005,12.229096875,7.071066875Q14.027166875,6.310546875,15.999946875,6.310546875Q17.972746875,6.310546875,19.770846875,7.071066875Q21.509246875,7.806366875,22.851446875,9.148506874999999Q24.193546875,10.490656874999999,24.928846875,12.229096875Q25.689346875,14.027166875,25.689346875,15.999946875Q25.689346875,17.972746875,24.928846875,19.770846875Q24.193546875,21.509246875,22.851446875,22.851446875Q21.509246875,24.193546875,19.770846875,24.928846875Q17.972746875,25.689346875,15.999946875,25.689346875Q14.027166875,25.689346875,12.229096875,24.928846875Q10.490656874999999,24.193546875,9.148506874999999,22.851446875Q7.8063568750000005,21.509246875,7.071066875,19.770846875Z" fill-rule="evenodd" fill="#000000" fill-opacity="1"/></g><g><path d="M22.77255390625,25.95455390625L22.773253906249998,25.95525390625Q22.92995390625,26.11195390625,23.11425390625,26.23505390625Q23.29855390625,26.35825390625,23.503253906250002,26.44305390625Q23.70795390625,26.52785390625,23.92535390625,26.57105390625Q24.14265390625,26.61425390625,24.36425390625,26.61425390625Q24.58585390625,26.61425390625,24.80325390625,26.57105390625Q25.02055390625,26.52785390625,25.22535390625,26.44305390625Q25.43005390625,26.35825390625,25.61435390625,26.23505390625Q25.79855390625,26.11195390625,25.95525390625,25.95525390625Q26.11195390625,25.79855390625,26.23505390625,25.61435390625Q26.35825390625,25.43005390625,26.44305390625,25.22535390625Q26.52785390625,25.02055390625,26.57105390625,24.80325390625Q26.61425390625,24.58585390625,26.61425390625,24.36425390625Q26.61425390625,24.14265390625,26.57105390625,23.92535390625Q26.52785390625,23.70795390625,26.44305390625,23.503253906250002Q26.35825390625,23.29855390625,26.23505390625,23.11425390625Q26.11195390625,22.92995390625,25.95525390625,22.773253906249998L25.95455390625,22.77255390625L9.22670390625,6.04472390625L9.22624390625,6.04426390625Q9.06954390625,5.88756390625,8.88528390625,5.7644439062499995Q8.70102390625,5.64133390625,8.49629190625,5.55652390625Q8.29155490625,5.47172390625,8.07420690625,5.428483906249999Q7.85685990625,5.38525390625,7.63525390625,5.38525390625Q7.41364790625,5.38525390625,7.19630090625,5.428483906249999Q6.97895290625,5.47172390625,6.77421590625,5.55652390625Q6.5694839062499994,5.64133390625,6.38522390625,5.7644439062499995Q6.20096390625,5.88756390625,6.04426390625,6.04426390625Q5.88756390625,6.20096390625,5.7644439062499995,6.38522390625Q5.64133390625,6.5694839062499994,5.55652390625,6.77421590625Q5.47172390625,6.97895290625,5.428483906249999,7.19630090625Q5.38525390625,7.41364790625,5.38525390625,7.63525390625Q5.38525390625,7.85685990625,5.428483906249999,8.07420690625Q5.47172390625,8.29155490625,5.55652390625,8.49629190625Q5.64133390625,8.70102390625,5.7644439062499995,8.88528390625Q5.88756390625,9.06954390625,6.04426390625,9.22624390625L6.04472390625,9.22670390625L22.77255390625,25.95455390625Z" fill-rule="evenodd" fill="#000000" fill-opacity="1"/></g></g></svg>