<svg xmlns="http://www.w3.org/2000/svg" xmlns:xlink="http://www.w3.org/1999/xlink" fill="none" version="1.1" width="32" height="32" viewBox="0 0 32 32"><defs><clipPath id="master_svg0_221_3075"><rect x="0" y="0" width="32" height="32" rx="0"/></clipPath></defs><g clip-path="url(#master_svg0_221_3075)"><g><path d="M15.999884014892578,2.666748046875C8.639914014892579,2.666748046875,2.666584014892578,8.640078046875,2.666584014892578,16.000048046875C2.666584014892578,23.360048046875,8.639914014892579,29.333448046875,15.999884014892578,29.333448046875C16.09558401489258,29.333448046875,16.191084014892578,29.332448046875,16.28628401489258,29.330348046875Q15.969184014892578,29.066448046875,15.680684014892577,28.749348046875Q14.027784014892578,26.932748046875,14.027784014892578,24.063948046875Q14.027784014892578,21.183948046875,15.702684014892577,19.390548046875Q17.416084014892576,17.555948046875002,20.151784014892577,17.555948046875002Q21.32338401489258,17.555948046875002,22.30778401489258,17.893648046875L22.30778401489258,17.699948046875L29.22578401489258,17.699948046875C29.296684014892577,17.143248046875,29.333284014892577,16.575948046875,29.333284014892577,16.000048046875C29.333284014892577,8.640078046875,23.35988401489258,2.666748046875,15.999884014892578,2.666748046875ZM11.285404014892578,9.399898046875L16.47118401489258,14.585648046875C16.861684014892578,14.976248046875,16.861684014892578,15.609448046875,16.47118401489258,16.000048046875L15.999984014892577,16.470948046875C15.609484014892578,16.861448046874997,14.976184014892578,16.861448046874997,14.585684014892578,16.470948046875L9.399904014892577,11.285158046875C9.009374014892579,10.894628046875,9.009374014892579,10.261618046875,9.399904014892577,9.871098046875L9.871094014892577,9.399898046875C10.26161401489258,9.009378046875,10.894874014892578,9.009378046875,11.285404014892578,9.399898046875ZM23.77598401489258,24.064048046875C23.77598401489258,26.632048046875,22.311984014892577,28.144048046875,20.151984014892577,28.144048046875C17.99198401489258,28.144048046875,16.527984014892578,26.632048046875,16.527984014892578,24.064048046875C16.527984014892578,21.496048046875,17.99198401489258,20.056048046875,20.151984014892577,20.056048046875C22.311984014892577,20.056048046875,23.77598401489258,21.508048046875,23.77598401489258,24.064048046875ZM26.77598401489258,28.000048046875L24.80798401489258,28.000048046875L24.80798401489258,20.200048046875L26.919984014892577,20.200048046875L28.64798401489258,23.680048046875L29.39198401489258,25.432048046875L29.439984014892577,25.432048046875C29.343984014892577,24.592048046875,29.175984014892578,23.416048046875,29.175984014892578,22.456048046875L29.175984014892578,20.200048046875L31.143984014892578,20.200048046875L31.143984014892578,28.000048046875L29.03198401489258,28.000048046875L27.303984014892578,24.508048046875L26.559984014892578,22.768048046875L26.51198401489258,22.768048046875C26.60798401489258,23.656048046875,26.77598401489258,24.784048046875,26.77598401489258,25.744048046875L26.77598401489258,28.000048046875ZM18.639984014892576,24.064048046875C18.639984014892576,25.480048046875,19.215984014892577,26.368048046875,20.151984014892577,26.368048046875C21.087984014892577,26.368048046875,21.663984014892577,25.480048046875,21.663984014892577,24.064048046875C21.663984014892577,22.648048046875,21.087984014892577,21.832048046875,20.151984014892577,21.832048046875C19.215984014892577,21.832048046875,18.639984014892576,22.648048046875,18.639984014892576,24.064048046875Z" fill-rule="evenodd" fill="#000000" fill-opacity="1"/></g></g></svg>